HIERARCHY
ROOT Hips
{
	OFFSET -14.64140 90.27770 -84.91600
	CHANNELS 6 Xposition Yposition Zposition Zrotation Xrotation Yrotation
	JOINT Spine
	{
		OFFSET 0.00000 13.20850 -1.60436
		CHANNELS 3 Zrotation Xrotation Yrotation
		JOINT Spine1
		{
			OFFSET 0.00000 8.61716 0.00000
			CHANNELS 3 Zrotation Xrotation Yrotation
			JOINT Spine2
			{
				OFFSET 0.00000 8.61717 0.00000
				CHANNELS 3 Zrotation Xrotation Yrotation
				JOINT Spine3
				{
					OFFSET 0.00000 8.61717 0.00000
					CHANNELS 3 Zrotation Xrotation Yrotation
					JOINT Neck
					{
						OFFSET 0.00000 11.07920 1.10792
						CHANNELS 3 Zrotation Xrotation Yrotation
						JOINT Neck1
						{
							OFFSET 0.00000 7.08032 0.00000
							CHANNELS 3 Zrotation Xrotation Yrotation
							JOINT Head
							{
								OFFSET 0.00000 7.08031 0.00000
								CHANNELS 3 Zrotation Xrotation Yrotation
								End site
								{
									OFFSET 0.00000 0.00000 0.00000
								}
							}
						}
					}
					JOINT RightShoulder
					{
						OFFSET -0.01000 7.91373 5.19711
						CHANNELS 3 Zrotation Xrotation Yrotation
						JOINT RightArm
						{
							OFFSET -18.41580 0.00000 0.00000
							CHANNELS 3 Zrotation Xrotation Yrotation
							JOINT RightForeArm
							{
								OFFSET -29.11090 0.00000 0.00000
								CHANNELS 3 Zrotation Xrotation Yrotation
								JOINT RightHand
								{
									OFFSET -24.65040 0.00000 0.00000
									CHANNELS 3 Zrotation Xrotation Yrotation
									JOINT RightHandThumb1
									{
										OFFSET -5.35114 -0.85590 3.97906
										CHANNELS 3 Zrotation Xrotation Yrotation
										JOINT RightHandThumb2
										{
											OFFSET -4.52789 0.00000 0.00000
											CHANNELS 3 Zrotation Xrotation Yrotation
											JOINT RightHandThumb3
											{
												OFFSET -2.46976 0.00000 0.00000
												CHANNELS 3 Zrotation Xrotation Yrotation
												End site
												{
													OFFSET 0.00000 0.00000 0.00000
												}
											}
										}
									}
									JOINT RightHandIndex1
									{
										OFFSET -14.26970 0.00000 2.88139
										CHANNELS 3 Zrotation Xrotation Yrotation
										JOINT RightHandIndex2
										{
											OFFSET -5.48836 0.00000 0.00000
											CHANNELS 3 Zrotation Xrotation Yrotation
											JOINT RightHandIndex3
											{
												OFFSET -3.01859 0.00000 0.00000
												CHANNELS 3 Zrotation Xrotation Yrotation
												End site
												{
													OFFSET 0.00000 0.00000 0.00000
												}
											}
										}
									}
									JOINT RightHandMiddle1
									{
										OFFSET -14.26970 0.00000 -0.09147
										CHANNELS 3 Zrotation Xrotation Yrotation
										JOINT RightHandMiddle2
										{
											OFFSET -6.17441 0.00000 0.00000
											CHANNELS 3 Zrotation Xrotation Yrotation
											JOINT RightHandMiddle3
											{
												OFFSET -3.56743 0.00000 0.00000
												CHANNELS 3 Zrotation Xrotation Yrotation
												End site
												{
													OFFSET 0.00000 0.00000 0.00000
												}
											}
										}
									}
									JOINT RightHandRing1
									{
										OFFSET -12.69180 0.00000 -3.06433
										CHANNELS 3 Zrotation Xrotation Yrotation
										JOINT RightHandRing2
										{
											OFFSET -5.62556 0.00000 0.00000
											CHANNELS 3 Zrotation Xrotation Yrotation
											JOINT RightHandRing3
											{
												OFFSET -3.56744 0.00000 0.00000
												CHANNELS 3 Zrotation Xrotation Yrotation
												End site
												{
													OFFSET 0.00000 0.00000 0.00000
												}
											}
										}
									}
									JOINT RightHandPinky1
									{
										OFFSET -11.11390 0.00000 -6.03719
										CHANNELS 3 Zrotation Xrotation Yrotation
										JOINT RightHandPinky2
										{
											OFFSET -4.52789 0.00000 0.00000
											CHANNELS 3 Zrotation Xrotation Yrotation
											JOINT RightHandPinky3
											{
												OFFSET -2.46976 0.00000 0.00000
												CHANNELS 3 Zrotation Xrotation Yrotation
												End site
												{
													OFFSET 0.00000 0.00000 0.00000
												}
											}
										}
									}
								}
							}
						}
					}
					JOINT LeftShoulder
					{
						OFFSET 0.01000 7.91373 5.19711
						CHANNELS 3 Zrotation Xrotation Yrotation
						JOINT LeftArm
						{
							OFFSET 18.41580 0.00000 0.00000
							CHANNELS 3 Zrotation Xrotation Yrotation
							JOINT LeftForeArm
							{
								OFFSET 29.11090 0.00000 0.00000
								CHANNELS 3 Zrotation Xrotation Yrotation
								JOINT LeftHand
								{
									OFFSET 24.65040 0.00000 0.00000
									CHANNELS 3 Zrotation Xrotation Yrotation
									JOINT LeftHandThumb1
									{
										OFFSET 5.35114 -0.85590 3.97906
										CHANNELS 3 Zrotation Xrotation Yrotation
										JOINT LeftHandThumb2
										{
											OFFSET 4.52789 0.00000 0.00000
											CHANNELS 3 Zrotation Xrotation Yrotation
											JOINT LeftHandThumb3
											{
												OFFSET 2.46977 0.00000 0.00000
												CHANNELS 3 Zrotation Xrotation Yrotation
												End site
												{
													OFFSET 0.00000 0.00000 0.00000
												}
											}
										}
									}
									JOINT LeftHandIndex1
									{
										OFFSET 14.26970 0.00000 2.88139
										CHANNELS 3 Zrotation Xrotation Yrotation
										JOINT LeftHandIndex2
										{
											OFFSET 5.48836 0.00000 0.00000
											CHANNELS 3 Zrotation Xrotation Yrotation
											JOINT LeftHandIndex3
											{
												OFFSET 3.01859 0.00000 0.00000
												CHANNELS 3 Zrotation Xrotation Yrotation
												End site
												{
													OFFSET 0.00000 0.00000 0.00000
												}
											}
										}
									}
									JOINT LeftHandMiddle1
									{
										OFFSET 14.26970 0.00000 -0.09147
										CHANNELS 3 Zrotation Xrotation Yrotation
										JOINT LeftHandMiddle2
										{
											OFFSET 6.17440 0.00000 0.00000
											CHANNELS 3 Zrotation Xrotation Yrotation
											JOINT LeftHandMiddle3
											{
												OFFSET 3.56744 0.00000 0.00000
												CHANNELS 3 Zrotation Xrotation Yrotation
												End site
												{
													OFFSET 0.00000 0.00000 0.00000
												}
											}
										}
									}
									JOINT LeftHandRing1
									{
										OFFSET 12.69180 0.00000 -3.06433
										CHANNELS 3 Zrotation Xrotation Yrotation
										JOINT LeftHandRing2
										{
											OFFSET 5.62556 0.00000 0.00000
											CHANNELS 3 Zrotation Xrotation Yrotation
											JOINT LeftHandRing3
											{
												OFFSET 3.56744 0.00000 0.00000
												CHANNELS 3 Zrotation Xrotation Yrotation
												End site
												{
													OFFSET 0.00000 0.00000 0.00000
												}
											}
										}
									}
									JOINT LeftHandPinky1
									{
										OFFSET 11.11390 0.00000 -6.03719
										CHANNELS 3 Zrotation Xrotation Yrotation
										JOINT LeftHandPinky2
										{
											OFFSET 4.52789 0.00000 0.00000
											CHANNELS 3 Zrotation Xrotation Yrotation
											JOINT LeftHandPinky3
											{
												OFFSET 2.46976 0.00000 0.00000
												CHANNELS 3 Zrotation Xrotation Yrotation
												End site
												{
													OFFSET 0.00000 0.00000 0.00000
												}
											}
										}
									}
								}
							}
						}
					}
					JOINT pCube4
					{
						OFFSET 0.00000 10.91090 1.10792
						CHANNELS 3 Zrotation Xrotation Yrotation
						End site
						{
							OFFSET 0.00000 0.00000 0.00000
						}
					}
				}
			}
		}
	}
	JOINT RightUpLeg
	{
		OFFSET -9.98441 0.00000 0.00000
		CHANNELS 3 Zrotation Xrotation Yrotation
		JOINT RightLeg
		{
			OFFSET 0.00000 -42.11790 0.00000
			CHANNELS 3 Zrotation Xrotation Yrotation
			JOINT RightFoot
			{
				OFFSET 0.00000 -45.00020 -0.00001
				CHANNELS 3 Zrotation Xrotation Yrotation
				JOINT RightForeFoot
				{
					OFFSET 0.00000 -3.74820 0.00000
					CHANNELS 3 Zrotation Xrotation Yrotation
					JOINT RightToeBase
					{
						OFFSET 0.00000 0.06325 14.43120
						CHANNELS 3 Zrotation Xrotation Yrotation
						End site
						{
							OFFSET 0.00000 0.00000 0.00000
						}
					}
				}
			}
		}
	}
	JOINT LeftUpLeg
	{
		OFFSET 9.98441 0.00000 0.00000
		CHANNELS 3 Zrotation Xrotation Yrotation
		JOINT LeftLeg
		{
			OFFSET 0.00000 -42.11800 0.00000
			CHANNELS 3 Zrotation Xrotation Yrotation
			JOINT LeftFoot
			{
				OFFSET 0.00000 -45.00070 0.00000
				CHANNELS 3 Zrotation Xrotation Yrotation
				JOINT LeftForeFoot
				{
					OFFSET 0.00000 -3.74824 0.00000
					CHANNELS 3 Zrotation Xrotation Yrotation
					JOINT LeftToeBase
					{
						OFFSET 0.00000 0.06325 14.43110
						CHANNELS 3 Zrotation Xrotation Yrotation
						End site
						{
							OFFSET 0.00000 0.00000 0.00000
						}
					}
				}
			}
		}
	}
}
MOTION
Frames: 4
Frame Time: 0.050000
0.04364966419928015 0.004828266610199257 -0.018237743563651473 0.03690204789341802 -6.272779686538486e-05 0.015700234783143092 4.513395829021697 2.4157150602964874 -2.0081606013783286 -0.7051891346133449 3.5613509046948444 0.4069498189612848 -0.6621356599344784 -1.1472059825235439 1.570892480284203 0.019916884693150276 -0.25258822695920413 -0.25762456373987913 0.7066685842619175 11.84737067217389 -3.41038421278104 0.2678382713944073 -0.6226310893085163 -9.256492385725556 1.4871630183127331 -16.935514497296836 -0.828450646431064 -9.007436631070666 3.227330372930729 -15.90796631418563 75.6296950440395 21.277150638496195 15.641850215137946 33.06266015332603 9.288575641666634 87.53263140518925 18.834255939955643 -0.4132974605434271 -7.753174636783733 4.53702613189243 -0.0911401834513845 -1.5945861605142588 -0.01387837238203845 -0.04666947577623183 -56.20373690245681 0.000814529727942418 0.01567530798503852 -56.23045711381754 -38.75648550824678 -0.003161309807360002 0.016424189122214782 -0.025381029185006843 0.016529599002477267 0.0169820455438313 0.039799064487562305 0.04031152987082313 0.010729141298153451 -36.72180613067979 0.0036184622127319824 0.006116351873564723 0.014330032394692476 -0.018762401593960098 -0.038376381062385306 -0.03416818350029838 -0.03843516863059943 0.01864546007215073 -19.778955030007886 -0.0010603307577561635 0.027412567389908347 0.04494465226872653 -0.001938527537944647 9.816001675939279e-05 0.03264192710427677 -0.005172092337621067 -0.008574324383597768 24.026895672871117 -0.005544978421409624 -0.014309318129299711 28.816250038520796 -0.021404371851175552 0.007887200043025436 28.852330328001838 0.010260755737545804 0.02445311567801386 8.097349762289957 2.089324737334047 13.819557631057522 -74.15096045091205 26.573918314783878 -10.297548678298407 -29.987220415779223 8.269704232528243 -80.66859693654463 -24.49486863277412 -8.439798764004891 6.012378184437558 -0.5152668192186043 0.06761684211528621 -8.112201812230808 0.03927551006151231 -0.02119511641970317 44.53158549235472 0.01267603078347771 0.026450898280064455 44.5619370473217 12.49023234264529 2.8610257257789265e-05 -0.0382838947761063 -0.023177030538169597 0.0018542752785249764 -0.046516401233691225 0.03789391993033775 0.049368428644926896 -0.04352163278365933 11.103574532855045 0.03166928359249252 -0.017696444347617794 0.016109493597570763 0.048944927124012175 -0.017562559740317493 -0.0006225912793566262 -0.017863755643758233 -0.02214964007891479 4.762890422556724 -0.01576199535553893 0.016784324452354872 0.008722520325608782 0.0019456549871272807 0.04284754011877091 0.048046294952572344 0.019102286176926532 0.04900052081691486 -5.584211561414433 0.011559195738316706 0.017765556021259107 -6.721296916890795 0.006007753475151787 0.009508914974335824 -6.740072064999209 0.04073836719469126 -0.009230655643887628 0.04774742861513202 0.028290214316891008 -0.001531318609678363 7.997123062356288 3.5085133048544437 -19.237489774702436 -0.0007545363062757244 10.398317919770559 0.022173636939272465 -5.6585097719304125 -15.66760949129599 3.1739182834550816 0.044472248656179623 -0.03068090342515668 0.028660810500200008 0.0038521727199319162 4.670754212491608 0.011883126991547347 12.471882780426258 -8.261001667320402 6.916529228584562 0.0023087114714433086 46.422920489667675 0.01850502002506568 -4.283067783080922 -14.779449381310101 -3.832775952444874 -0.03247525077876536 0.0169116644518287 -0.008572701185879448 -0.040349763034182126 -10.760074647523954 -0.018584980510695407 
-0.04914091023820996 -0.020683638875481636 0.021101013870912722 -0.02706891765871083 -0.024078101569893248 -0.032604361811855116 4.680157570330444 2.459047975440184 -2.0621723633958378 -0.7262407103176839 3.542003074968962 0.3417626309421655 -0.7020760785801956 -1.1802244547318799 1.5667278962590763 -0.12611939991401855 -0.39721027369787737 -0.21782464680808333 0.6504964556651289 11.914904283233344 -3.2467039586464668 0.3645077481470897 -0.5276853419570179 -8.693593091346544 1.4726922705827077 -16.840490917849586 -0.7794222304755659 -9.387859034846766 3.2811931701655435 -16.213886525385757 77.04696536091427 19.870195751160676 15.295666717482783 27.61769721482332 8.143680305572348 87.4786766260338 18.365488088709693 -0.44777571415107686 -7.013800948403192 4.5624381856416045 -0.15982008161824016 -1.5720838260617374 0.004154542206940333 0.02337756983851812 -56.23434879824607 -0.022765380579490048 0.0394736492700568 -56.253171520907614 -38.7540051682787 0.04304716497292547 -0.01152907928101291 0.027087824107896234 0.019394750741017812 0.022187432045993164 -0.033874854746807 0.009129103845251398 0.03398266987386617 -36.65745552223416 -0.031007837633230634 0.008795940404384079 0.02444268230055249 -0.03802571766222633 -0.03586978243319887 -0.006871457922522896 0.010136810811072166 0.04398459374531731 -19.726326503488544 -0.03163898970253757 -0.011315495840090352 -0.017586936259683463 0.0190703253234735 -0.04005531808637716 0.015777648434259453 -0.039568088173179444 -0.025862030210830278 24.021428806106442 -0.014873385124621951 -0.015186228749687194 28.869903954343812 0.01821230140794963 -0.04759687248505565 28.900647502100604 -0.005895540919641499 0.00248723120237122 8.560636413571904 2.1456259127546145 14.01096330597764 -74.63614362558616 25.679182553919038 -10.652552021246 -26.369235983252175 7.185666889156092 -78.53611921939722 -23.681320221417142 -8.044412179841139 5.7300088922645775 -0.4259565954488754 0.0446533837189934 -8.105023677619073 0.03073476613022735 -0.03953169249640165 44.57452032360262 0.041262270704401964 0.022431905869753778 44.57031860937012 12.464208537513219 0.02039154278498749 -0.026388952873206736 0.0426098674183474 -0.009661684102612337 0.01808149358488357 -0.005064985122307557 0.017023609479922316 0.0053816370163776535 11.109652251958762 0.02593918080300778 0.048986827301078735 0.015597862251429307 0.04988690247400975 0.006125552679096718 -0.025948969815776293 -0.02144371164714633 -0.013487643500881748 4.740445526474562 0.017783813793893297 -0.027478549426299844 0.031473800653847535 0.027869028196398683 -0.04013656798628096 -0.004875938101409676 0.033289876510309596 0.037445828721983605 -5.597274098235462 0.005559998005623435 0.020073926130891824 -6.756568067414852 -0.026045664435047005 0.04522091870169042 -6.691254648710206 -0.03413171433111933 0.031298228398357636 0.004877050274963223 0.03223772405764338 0.02258559016924311 8.050743185915609 3.5095144396951254 -19.174438961215127 0.024774352904682082 10.416589302006296 0.024113618536512876 -5.626029161942141 -15.681591784574675 3.1746000170070077 0.025651793602393124 0.0253549593540746 -0.023870019341152175 -0.008643605144097948 4.6509798352098155 0.01858081306876789 12.449836907313685 -8.264777513551701 6.929254632474078 -0.024543600127685028 46.372073213596906 0.015312517478158 -4.358547743155702 -14.730682105254182 -3.850562856442086 0.01701298306807378 0.04479673605863395 -0.025404084680600684 -0.04630336496368041 -10.705512178820847 0.017191813888880036 
0.02495157398471419 0.027104786642215734 -0.009939019516975635 0.0340449492253016 0.024702644643073608 -0.009269777856225122 4.742177091769426 2.328392695753842 -2.165058000672174 -0.7135695421400362 3.527683159281152 0.37114628241388176 -0.6447598579636022 -1.1656856720200384 1.5364057580896917 -0.2396622063883468 -0.42259309651825416 -0.18201111806565956 0.6264175036653903 11.985851364925097 -3.021462629576881 0.3700440733518443 -0.4706829644182108 -7.937796769145749 1.4105477056077553 -16.778537710597742 -0.7406648141585473 -9.592269999997843 3.4288658591393855 -16.40164405525117 78.20525547735457 19.000068542672338 14.642330354752714 22.481902708138488 6.847868925934584 88.46317677203436 17.72631916354823 -0.46790750822014754 -6.216416931664779 4.492184142507792 -0.08649533575720511 -1.5692277612761232 -0.0023247840845507356 -0.03812307594874411 -56.254187942815655 -0.010600094969007589 0.0049065165853588305 -56.21997733385588 -38.77310992272163 -0.03886605071612036 -0.0009391234073253866 -0.019792974717574904 0.028344008768546678 -0.0032160653502668027 0.04355858788877552 -0.017156638734628034 0.014286405055160937 -36.68224984434108 -0.020007477128854433 0.014911251871764595 -0.0026919949826759654 0.02703442962921053 -0.006599421718036154 -0.02198210981648619 -0.03183995034825911 0.03842488286852973 -19.786275183481152 0.008078783343705691 -0.035298535390713585 -0.009068452440348288 0.04809718058139949 -0.03147743454656813 -0.031937288615714474 -0.039612258747816605 0.03286167079662113 24.040693930722195 -0.008298999857115262 -0.039615326519962184 28.868150642431356 -0.021380181287174442 0.009452703143930572 28.841442379065526 0.039567146734063134 -0.04175256819689335 8.799215106060531 2.2432575354984574 14.178246992334955 -75.21451342900635 25.168613882567236 -10.666861698047889 -24.297381789207513 6.825253804603855 -77.5563122739926 -23.004918479499267 -7.8712576974111705 5.6574148643146485 -0.492900472321719 0.05930000870851917 -8.104444453116919 0.0066843314367811815 0.042848298212981646 44.611701843018764 -0.03913312340211366 0.040319240032493174 44.562726161431826 12.422094554875246 -0.031828215506237933 0.04214313842308293 -0.029748001556484042 -0.005646484150418562 -0.00044556863177544405 0.03392837682562062 -0.0055028957232652635 0.00783232982085513 11.123528482881845 -0.011997059112482748 -0.02458056763030546 -0.010134693810747952 -0.009434215458817043 0.016998069297879028 -0.006338927219840343 0.02182979427503829 -0.02854166535895146 4.7551146775613 0.015452316786977545 0.0041220239996295135 0.007417299245460345 0.0008637701461389601 0.0479422657826075 0.01651333851870166 -0.014000692509624916 -0.028819712806682232 -5.588825443916601 -0.0346480356932036 -0.02701318637612365 -6.689978463495735 -0.009261177605475141 0.041588784255257596 -6.710178890928296 0.01924367214125226 0.010893565009524365 0.048091436788063116 -0.03315387320868596 -0.0046796702312311474 8.091241993519 3.4761959569270684 -19.191103945063112 0.03670696714828999 10.406247687634274 0.04440277964052049 -5.575710905172129 -15.619708086370437 3.152765537659951 0.012113903463719823 -0.04195004065561349 -0.03231509735144788 -0.028271470323204966 4.674689132982068 -0.006755479931015781 12.487002398702117 -8.256869627371112 6.845271658872775 0.01739318188799056 46.347263130375836 -0.030264739574097456 -4.3550885538460875 -14.727216391460521 -3.8274237539546587 0.010527537832991008 -0.011063908241481596 -0.03327513561128553 -0.02800577343223124 -10.760620049776158 0.0252444580166547 
-0.03574172546611925 0.030604807646729234 -0.02597876040938168 -0.025728435792964844 -0.012438015107395796 -0.029477955593423977 4.755263973423185 2.2687139820115876 -2.2079392098863644 -0.7299609150953801 3.4512829648962033 0.3771081044512433 -0.6843673729004278 -1.2041230901815072 1.4351998287879293 -0.3254656966317531 -0.42354579435459483 -0.17659883153658923 0.539890651805214 11.920459631906883 -2.74852825530586 0.38694031903778364 -0.4437391259074397 -7.086829847076399 1.3926781662508427 -16.690589821067174 -0.5734448492969371 -9.590611330243577 3.4220005348280984 -16.642161449809283 79.3589219570884 18.915006453867363 13.480940798633553 17.515396390775205 5.223753969957586 89.93759436806644 17.26857628416658 -0.4633269707545573 -5.559165755016582 4.545539790022024 -0.15119851702821124 -1.601207674012303 0.04940031457942306 -0.023533034614056727 -56.20694033394522 0.006180117944705881 -0.0012211830659262617 -56.27600199043244 -38.81353747789222 -0.04579155921480023 -0.006392337805417921 0.019836534852784284 0.008214715377458333 -0.007522468582273951 -0.003463909968495177 0.04839368759956719 0.0033781941328966596 -36.67520017252454 0.015824633820403496 0.03402001509401509 0.012102687441582747 -0.017861451591228032 -0.04664141575401569 -0.007865458494319409 0.0145410741898833 -0.044909173950571715 -19.78474590604826 0.01168356452102985 0.03804692425058712 0.020611835372626612 0.025882427057720397 0.04853688534274688 0.00035871911287764036 -0.0016255390539945361 -0.025925620095335333 24.09848992231466 -0.00864991084979545 -0.034145663261628725 28.837623661108275 0.03725439143369915 -0.045746176594629234 28.88511438798665 0.014270174927695965 0.03682583390003074 8.986933645212375 2.2528377453472546 14.339754968125407 -75.77340712627655 25.195504004531404 -10.461019896032422 -23.792538484143925 7.0873800563836165 -77.59721906560542 -22.587050943978948 -8.004781942113008 5.716850727338107 -0.46543594900681545 0.08054145533511128 -8.10141797970716 0.027832708111176375 0.049088071950006196 44.61595846201256 0.027216107135475072 0.032355705260840875 44.54062345429452 12.48149694367714 0.043419369448571506 0.02110658660157091 -0.039702617759219676 0.04408257892789278 0.04137042750612163 -0.0335786397363958 -0.00946541600717638 0.04336515194216015 11.09207080608437 0.03429452824639074 0.02738980569345099 -0.004621868130562304 0.006424020263462463 -0.039767113263578555 -0.00984160192160418 0.010549159699289925 -0.030597734834761747 4.770809033284196 0.046930127048790925 -0.012362200854769812 0.03915964906432293 0.026653322100700556 -0.024408789526656118 0.03466479180072705 0.0026508732184590622 0.022888087343105688 -5.56803568293084 0.040586921617152244 0.04123715280121593 -6.702447928491288 0.02641774644664984 0.016751644515315516 -6.710014032719209 0.0018857062111073514 -0.03617873413720631 -0.04481080642562179 0.03982045123958148 0.019433392800617937 8.070328957738068 3.480777169699852 -19.203221340077096 -0.027605517498860505 10.364218467339814 0.038702220002236026 -5.607006634507183 -15.705318041532083 3.1932674230514877 -0.040721082279342936 -0.006833825128358896 -0.036080129262612316 0.02791956724700849 4.673428038711562 -0.019175590151780827 12.419911152121774 -8.242545633876164 6.882227258813492 0.009559638189960907 46.38026726112681 -0.015283124959133334 -4.349185876618583 -14.73137471682627 -3.796648468356893 0.020581656053085328 0.03779054195173905 -0.02823686005313037 -0.009109702730112964 -10.72556178058579 -0.04582949070029509 
